<?xml version="1.0" encoding="iso-8859-1"?>
<!-- Generator: Adobe Illustrator 19.0.0, SVG Export Plug-In . SVG Version: 6.00 Build 0)  -->
<svg version="1.1" id="Capa_1" xmlns="http://www.w3.org/2000/svg" xmlns:xlink="http://www.w3.org/1999/xlink" x="0px" y="0px"
	 viewBox="0 0 512 512" style="enable-background:new 0 0 512 512;" xml:space="preserve">
<path style="fill:#F9DCA2;" d="M321.146,165.335l51.85-66.993l6.444-8.326c5.679-7.582,14.366-11.58,23.161-11.58
	c6.018,0,12.09,1.882,17.29,5.774c4.945,3.701,8.368,8.688,10.145,14.132c2.818,8.635,1.531,18.482-4.338,26.308L338.5,254.106
	c-2.506,3.722-14.092,20.764-20.969,41.409c-8.795,26.404-33.707,44.065-61.538,44.065l0,0c-27.828,0-52.74-17.657-61.536-44.059
	c-6.879-20.648-18.466-37.693-20.973-41.415L86.288,124.65c-5.859-7.826-7.146-17.674-4.328-26.308
	c1.776-5.444,5.2-10.432,10.134-14.132c5.2-3.892,11.282-5.774,17.302-5.774c8.794,0,17.482,3.999,23.149,11.58l6.454,8.326
	l51.85,66.993"/>
<g>
	<path style="fill:#E5C691;" d="M204.03,175.474l75.761,67.185l106.384-134.177l6.444-8.326c5.679-7.582,14.366-11.58,23.161-11.58
		c3.467,0,6.947,0.647,10.273,1.92c-1.679-2.339-3.735-4.468-6.162-6.285c-5.2-3.892-11.272-5.774-17.29-5.774
		c-8.794,0-17.482,3.999-23.161,11.58l-6.444,8.326l-51.85,66.993H196.183L204.03,175.474z"/>
	<path style="fill:#E5C691;" d="M230.815,339.582h-33.194c9.905-35.374-19.933-79.223-24.14-85.479l-87.192-129.45
		c-5.86-7.827-7.148-17.682-4.329-26.31c1.774-5.444,5.201-10.433,10.128-14.133c5.201-3.893,11.284-5.779,17.307-5.779
		c5.88,0,11.71,1.795,16.627,5.242c-0.243,0.172-0.497,0.355-0.74,0.537c-4.938,3.701-8.354,8.689-10.139,14.133
		c-2.819,8.628-1.531,18.483,4.329,26.31l87.202,129.45C210.883,260.359,240.721,304.209,230.815,339.582z"/>
</g>
<path style="fill:#C11133;" d="M312.492,334.545l0.7,5.799c-20.338,13.515-31.744,38.871-25.458,64.887
	c0.071,0.274,0.132,3.549,0.203,6.56c-10.605,1.318-21.271,1.967-31.937,1.967c-10.676,0-21.342-0.649-31.947-1.967
	c0.061-3.011,0.122-6.286,0.193-6.56c6.326-26.158-5.232-51.646-25.762-65.1l35.211-35.211L312.492,334.545z"/>
<path style="fill:#0387D8;" d="M332.029,275.293v66.976H179.96v-66.976c36.124-29.24,13.707-87.557,13.707-87.557h124.654
	C318.322,187.736,295.906,246.054,332.029,275.293z"/>
<path style="fill:#E5C691;" d="M290.331,224.121v19.434c0,18.97-15.365,34.334-34.334,34.334c-18.953,0-34.334-15.365-34.334-34.334
	v-19.434"/>
<circle style="fill:#F9DCA2;" cx="256" cy="168.441" r="65.222"/>
<path style="fill:#0271A8;" d="M232.603,339.582l-22.781,10.159l-40.372,18.006c2.484-8.871-5.363-22.325-16.587-36.57
	c2.413-0.568,4.948-0.872,7.553-0.872h4.938c5.059,0,9.956,0.608,14.61,1.754v-56.766c36.124-29.24,13.707-87.557,13.707-87.557
	h20.034l18.979,11.953C232.684,199.69,201.092,297.862,232.603,339.582z"/>
<path style="fill:#E5C691;" d="M224.723,168.44c0-30.149,20.461-55.509,48.252-62.981c-5.414-1.456-11.101-2.245-16.974-2.245
	c-36.024,0-65.226,29.202-65.226,65.226s29.202,65.226,65.226,65.226c5.873,0,11.561-0.789,16.974-2.245
	C245.184,223.949,224.723,198.59,224.723,168.44z"/>
<g>
	<path style="fill:#F9DCA2;" d="M384.064,367.676l-13.322,94.695l-61.886,15.431l11.244-72.025
		c-10.615,2.687-21.352,4.694-32.16,6.012c-0.071-3.011-0.132-6.286-0.203-6.56c-7.999-33.092,12.623-65.11,43.839-73.049
		c4.796-1.227,9.834-1.876,15.066-1.876h4.938C371.522,330.305,386.842,347.936,384.064,367.676z"/>
	<path style="fill:#F9DCA2;" d="M191.907,405.777l12.191,78.115l-62.843-21.521l-13.322-94.695
		c-2.778-19.74,12.552-37.371,32.484-37.371h4.938c39.267,0,68.131,36.752,58.895,74.924c-0.071,0.274-0.132,3.549-0.193,6.56
		C213.259,410.471,202.512,408.464,191.907,405.777z"/>
</g>
<g>
	<path style="fill:#E5C691;" d="M328.539,351.671l-22.35,143.215h19.77l18.608-121.915c1.008-6.6-2.112-13.147-7.873-16.521
		L328.539,351.671z"/>
	<path style="fill:#E5C691;" d="M150.667,367.676l16.739,103.373l-25.347-8.679l-13.322-94.695
		c-2.778-19.74,12.552-37.371,32.484-37.371h4.938c3.356,0,6.631,0.264,9.814,0.791C159.69,334.716,148.234,350.39,150.667,367.676z
		"/>
	<path style="fill:#E5C691;" d="M331.576,332.181l-9.246,59.321l-2.23,14.275c-10.615,2.687-21.352,4.694-32.16,6.012
		c-0.071-3.011-0.132-6.286-0.203-6.56C279.738,372.137,300.359,340.12,331.576,332.181z"/>
</g>
<g>
	<path style="fill:#E22342;" d="M114.346,494.886h91.464l-5.069-32.52h-58.682c-15.305,0-27.712,12.408-27.712,27.712v4.808H114.346
		z"/>
	<path style="fill:#E22342;" d="M397.653,494.886h-91.464l5.069-32.52h58.682c15.305,0,27.712,12.408,27.712,27.712v4.808H397.653z"
		/>
</g>
<g>
	<polygon style="fill:#455256;" points="58.646,101.905 58.646,17.111 33.125,17.111 7.604,17.111 7.604,101.905 7.604,186.697 
		33.125,186.697 58.646,186.697 	"/>
	<polygon style="fill:#455256;" points="504.396,101.905 504.396,17.111 478.875,17.111 453.353,17.111 453.353,101.905 
		453.353,186.697 478.875,186.697 504.396,186.697 	"/>
</g>
<g>
	<polygon style="fill:#313C3F;" points="58.646,164.365 58.646,142.031 33.125,142.031 7.604,142.031 7.604,164.365 7.604,186.697 
		33.125,186.697 58.646,186.697 	"/>
	<polygon style="fill:#313C3F;" points="504.396,164.365 504.396,142.031 478.875,142.031 453.353,142.031 453.353,164.365 
		453.353,186.697 478.875,186.697 504.396,186.697 	"/>
</g>
<path style="fill:#455256;" d="M314.936,199.096c0-0.872-0.02-1.724-0.051-2.565"/>
<path style="fill:#D67C05;" d="M321.225,168.432c0,3.123-0.223,6.185-0.649,9.186c-14.285-5.09-26.269-15.046-33.974-27.851
	c-9.125,4.856-19.537,7.614-30.598,7.614c-10.352,0-20.135-2.413-28.824-6.712c-0.598-0.284-1.186-0.588-1.774-0.902
	c-7.715,12.805-19.699,22.761-33.985,27.851c-0.426-3.001-0.649-6.063-0.649-9.186c0-36.023,29.209-65.222,65.232-65.222
	c5.809,0,11.436,0.76,16.8,2.19C300.684,112.802,321.225,138.219,321.225,168.432z"/>
<path style="fill:#AD5F02;" d="M272.975,105.461c-22.112,5.941-39.581,23.207-45.796,45.208c-0.598-0.284-1.186-0.588-1.774-0.902
	c-7.715,12.805-19.699,22.761-33.985,27.851c-0.426-3.001-0.649-6.063-0.649-9.186c0-36.023,29.209-65.222,65.232-65.222
	c5.809,0,11.436,0.76,16.8,2.19C272.864,105.431,272.924,105.451,272.975,105.461z"/>
<polygon points="325.419,190.466 325.419,190.466 325.42,190.466 "/>
<path d="M504.396,9.507h-51.043c-4.199,0-7.604,3.405-7.604,7.604v16.617c0,4.199,3.405,7.604,7.604,7.604l0,0
	c4.199,0,7.604-3.405,7.604-7.604v-9.013h35.835v154.378h-35.835V69.215c0-4.199-3.405-7.604-7.604-7.604l0,0
	c-4.199,0-7.604,3.405-7.604,7.604v25.086h-9.107c-2.454-6.438-6.629-12.012-12.196-16.178c-6.372-4.769-13.926-7.291-21.847-7.291
	c-11.432,0-22.348,5.447-29.208,14.574l-6.412,8.284c-0.017,0.021-0.033,0.044-0.051,0.065l-0.421,0.544H145.485l-0.408-0.526
	c-0.027-0.035-0.055-0.071-0.082-0.106l-6.392-8.259c-6.865-9.132-17.775-14.581-29.204-14.581c-7.921,0-15.478,2.522-21.858,7.298
	c-5.565,4.172-9.737,9.745-12.186,16.174h-9.107V17.111c0-4.199-3.405-7.604-7.604-7.604H7.604C3.405,9.507,0,12.912,0,17.111
	v169.586c0,4.199,3.405,7.604,7.604,7.604h51.042c4.199,0,7.604-3.405,7.604-7.604v-77.188h6.761c0.416,6.93,2.788,13.696,7,19.426
	l29.611,47.625c2.217,3.567,6.906,4.66,10.472,2.442l0,0c3.567-2.217,4.66-6.906,2.442-10.472l-29.775-47.89
	c-0.136-0.198-0.272-0.395-0.408-0.592c-4.129-5.536-5.312-12.761-3.159-19.347c1.356-4.161,3.939-7.759,7.465-10.402
	c3.726-2.788,8.131-4.262,12.74-4.262c6.783,0,13.005,3.114,17.069,8.542c0.024,0.033,0.051,0.066,0.075,0.099l5.849,7.556
	c0.536,1.379,1.772,5.048,1.644,9.292c-0.208,6.922-3.956,12.123-11.457,15.895c-3.55,1.785-5.37,5.982-3.917,9.679
	c1.2,3.053,4.085,4.843,7.092,4.843c1.132,0,2.284-0.253,3.368-0.791c10.425-5.162,15.82-12.294,18.283-19.524l35.779,46.22
	c-0.002,0.199-0.015,0.393-0.015,0.592c0,7.672,1.2,15.067,3.41,22.017c-0.001,0-0.011-0.001-0.011-0.001
	c0.01,0.025,0.065,0.172,0.156,0.429c0.188,0.579,0.383,1.154,0.585,1.726c3.05,9.354,13.579,47.065-5.9,70.61l-40.005-64.343
	c-2.217-3.567-6.906-4.66-10.472-2.442l0,0c-3.567,2.217-4.66,6.906-2.442,10.472l43.869,70.558v45.595
	c-2.319-0.234-4.658-0.359-7.006-0.359h-4.938c-3.137,0-6.265,0.361-9.29,1.074c-20.447,4.796-33.654,24.125-30.724,44.962
	l12.282,87.3c-14.936,4.118-25.942,17.816-25.942,34.042v4.808c0,4.199,3.405,7.604,7.604,7.604h91.276
	c1.368,0,2.737-0.293,3.924-0.973c2.845-1.631,4.253-4.754,3.777-7.802l-5.069-32.52c-0.005-0.033-0.014-0.065-0.02-0.098
	l-7.081-45.381c18.028,3.749,36.424,5.647,54.846,5.647c18.423,0,36.817-1.898,54.846-5.647l-7.1,45.478c0,0.001,0,0.003,0,0.004
	l-5.069,32.517c-0.475,3.048,0.933,6.171,3.777,7.802c1.186,0.68,2.557,0.973,3.924,0.973h91.275c4.199,0,7.604-3.405,7.604-7.604
	v-4.808c0-16.228-11.005-29.925-25.943-34.043l12.282-87.298c1.63-11.589-1.838-23.303-9.515-32.136
	c-7.678-8.833-18.793-13.899-30.497-13.899h-4.946c-2.356,0-4.69,0.137-7.002,0.371v-45.61l92.354-148.533
	c4.21-5.727,6.581-12.492,6.998-19.422h6.762v77.188c0,4.199,3.405,7.604,7.604,7.604h51.044c4.199,0,7.604-3.405,7.604-7.604
	V17.111C512,12.912,508.595,9.507,504.396,9.507z M51.042,179.093H15.208V24.715h35.834V179.093z M229.267,236.164
	c8.283,3.282,17.296,5.105,26.733,5.105c9.435,0,18.446-1.823,26.727-5.103v7.387c0,14.74-11.991,26.73-26.73,26.73
	c-14.74,0-26.73-11.991-26.73-26.73L229.267,236.164L229.267,236.164z M256,226.062c-27,0-49.713-18.671-55.93-43.779
	c11.063-5.128,20.727-13.001,28.01-22.846c8.808,3.65,18.34,5.558,27.923,5.558c9.583,0,19.112-1.907,27.92-5.556
	c7.276,9.845,16.94,17.717,28.007,22.846C305.712,207.391,283,226.062,256,226.062z M256,110.819
	c30.955,0,56.278,24.541,57.56,55.187c-8.33-4.855-15.406-11.776-20.445-20.148c-2.086-3.464-6.518-4.692-10.087-2.792
	c-8.264,4.398-17.609,6.723-27.025,6.723c-9.416,0-18.762-2.325-27.026-6.723c-3.568-1.899-7.999-0.673-10.085,2.788
	c-5.045,8.372-12.124,15.294-20.452,20.149C199.724,135.357,225.046,110.819,256,110.819z M298.718,109.509h56.02l-29.102,37.601
	C320.949,131.837,311.36,118.697,298.718,109.509z M157.257,109.509h56.024c-12.642,9.189-22.23,22.328-26.918,37.601
	L157.257,109.509z M208.07,223.206c1.911,1.675,3.909,3.249,5.988,4.72v15.629c0,23.125,18.814,41.938,41.938,41.938
	s41.938-18.813,41.938-41.938V227.93c2.078-1.469,4.077-3.044,5.988-4.717c-0.733,23.447,6.302,42.527,20.505,55.549v27.009H187.566
	v-27.007C201.772,265.739,208.806,246.655,208.07,223.206z M122.145,487.282c1.361-9.734,9.717-17.253,19.808-17.307h52.279
	l2.698,17.307H122.145z M194.452,372.76c-0.647-4.148-4.531-6.992-8.685-6.341c-4.15,0.647-6.989,4.536-6.341,8.685l12.429,79.658
	h-43.992l-12.402-88.144c-1.798-12.783,6.608-25.098,19.143-28.038c1.89-0.445,3.846-0.67,5.811-0.67h4.938
	c4.355,0,8.658,0.516,12.794,1.534c9.998,2.459,19.02,7.804,26.089,15.458c12.018,13.01,16.743,31.019,12.691,48.212
	c-6.136-0.95-12.237-2.128-18.29-3.528L194.452,372.76z M232.094,405.001c4.128-19.625-0.552-39.905-12.697-55.685h73.211
	c-12.259,15.923-16.824,36.059-12.686,55.683C264.026,406.49,247.993,406.491,232.094,405.001z M389.854,487.282H315.07
	l2.699-17.312h52.171C380.079,469.97,388.489,477.513,389.854,487.282z M351.584,337.909c7.298,0,14.231,3.159,19.019,8.668
	c4.787,5.508,6.95,12.813,5.934,20.041l-12.401,88.143h-43.995l12.437-79.662c0.648-4.149-2.191-8.038-6.34-8.686
	c-4.153-0.654-8.039,2.191-8.686,6.34l-4.188,26.831c-6.056,1.401-12.16,2.579-18.3,3.529c-3.728-15.829-0.12-32.208,9.938-44.99
	c10.11-12.847,25.285-20.215,41.636-20.215h4.945V337.909z M308.862,334.107H203.147c-4.836-3.233-10.065-5.828-15.58-7.72v-5.409
	h136.861v5.415C318.925,328.28,313.703,330.876,308.862,334.107z M419.614,120.087c-0.133,0.177-0.258,0.36-0.374,0.549
	L330.586,263.22c-19.168-23.167-9.279-60.059-6.054-70.143c0.302-0.836,0.587-1.681,0.859-2.533c0.014-0.04,0.024-0.066,0.029-0.079
	h-0.002c0,0,0,0,0-0.001l0.002,0.001c0-0.002,0.003-0.008,0.003-0.009l-0.002-0.001c2.209-6.949,3.41-14.344,3.41-22.016
	c0-0.199-0.013-0.393-0.015-0.591l35.696-46.121c2.373,6.866,7.604,14.098,18.36,19.424c1.085,0.537,2.236,0.791,3.368,0.791
	c2.8,0,5.494-1.552,6.821-4.231c1.863-3.763,0.322-8.325-3.441-10.188c-7.478-3.703-11.286-8.79-11.642-15.556
	c-0.232-4.413,1.067-8.289,1.635-9.75l5.841-7.547c0.024-0.032,0.05-0.064,0.073-0.096c4.063-5.424,10.286-8.534,17.074-8.534
	c4.609,0,9.012,1.472,12.734,4.258c3.529,2.641,6.114,6.239,7.472,10.403C424.961,107.303,423.768,114.55,419.614,120.087z"/>
<path d="M274.659,171.041c-4.2,0-7.604,3.405-7.604,7.604v8.507c0,4.199,3.404,7.604,7.604,7.604c4.2,0,7.604-3.405,7.604-7.604
	v-8.507C282.263,174.445,278.86,171.041,274.659,171.041z"/>
<path d="M237.34,171.041c-4.2,0-7.604,3.405-7.604,7.604v8.507c0,4.199,3.404,7.604,7.604,7.604s7.604-3.405,7.604-7.604v-8.507
	C244.944,174.445,241.539,171.041,237.34,171.041z"/>
<g>
</g>
<g>
</g>
<g>
</g>
<g>
</g>
<g>
</g>
<g>
</g>
<g>
</g>
<g>
</g>
<g>
</g>
<g>
</g>
<g>
</g>
<g>
</g>
<g>
</g>
<g>
</g>
<g>
</g>
</svg>
