<?xml version="1.0" encoding="iso-8859-1"?>
<!-- Generator: Adobe Illustrator 19.0.0, SVG Export Plug-In . SVG Version: 6.00 Build 0)  -->
<svg version="1.1" id="Capa_1" xmlns="http://www.w3.org/2000/svg" xmlns:xlink="http://www.w3.org/1999/xlink" x="0px" y="0px"
	 viewBox="0 0 512 512" style="enable-background:new 0 0 512 512;" xml:space="preserve">
<path style="fill:#5C6376;" d="M398.72,38.04v435.92c0,16.87-13.67,30.54-30.53,30.54H143.81c-16.86,0-30.53-13.67-30.53-30.54
	V38.04c0-16.87,13.67-30.54,30.53-30.54h224.38C385.05,7.5,398.72,21.17,398.72,38.04z"/>
<path style="fill:#4C5568;" d="M398.723,38.04v435.92c0,16.87-13.67,30.54-30.53,30.54h-28c16.86,0,30.53-13.67,30.53-30.54V38.04
	c0-16.87-13.67-30.54-30.53-30.54h28C385.053,7.5,398.723,21.17,398.723,38.04z"/>
<path style="fill:#707784;" d="M171.81,504.5h-28c-16.86,0-30.53-13.67-30.53-30.54V38.04c0-16.87,13.67-30.54,30.53-30.54h28
	c-16.86,0-30.53,13.67-30.53,30.54v435.92C141.28,490.831,154.95,504.5,171.81,504.5z"/>
<rect x="113.28" y="61.82" style="fill:#D1D9E8;" width="285.44" height="396.79"/>
<rect x="113.28" y="61.823" style="fill:#E2E9F2;" width="28" height="396.79"/>
<rect x="370.72" y="61.82" style="fill:#BCC7D8;" width="28" height="396.79"/>
<rect x="113.28" y="61.823" style="fill:#FF78BF;" width="285.45" height="36.777"/>
<rect x="370.72" y="61.823" style="fill:#F261B4;" width="28" height="36.777"/>
<rect x="113.28" y="61.823" style="fill:#FF94D1;" width="28" height="36.777"/>
<g>
	<path style="fill:#50596D;" d="M398.723,123h9.593c4.578,0,8.289,3.361,8.289,7.507v127.371c0,4.146-3.711,7.507-8.289,7.507
		h-9.593V123z"/>
	<path style="fill:#50596D;" d="M113.277,168.182h-9.593c-4.578,0-8.289-3.361-8.289-7.507v-16.027c0-4.146,3.711-7.507,8.289-7.507
		h9.593V168.182z"/>
	<path style="fill:#50596D;" d="M113.277,430.182h-9.593c-4.578,0-8.289-3.361-8.289-7.507v-16.027c0-4.146,3.711-7.507,8.289-7.507
		h9.593V430.182z"/>
</g>
<path d="M408.316,115.5h-2.094V38.036C406.223,17.063,389.16,0,368.188,0H143.813c-20.973,0-38.035,17.063-38.035,38.036v91.604
	h-2.094c-8.706,0-15.789,6.732-15.789,15.007v16.027c0,8.274,7.083,15.007,15.789,15.007h2.094v87.707c0,4.143,3.357,7.5,7.5,7.5
	s7.5-3.357,7.5-7.5V106.101h270.445v345.013H120.777V295.081c0-4.143-3.357-7.5-7.5-7.5s-7.5,3.357-7.5,7.5v96.56h-2.094
	c-8.706,0-15.789,6.732-15.789,15.007v16.027c0,8.274,7.083,15.007,15.789,15.007h2.094v36.283
	c0,20.973,17.063,38.035,38.035,38.035h180.265c4.143,0,7.5-3.357,7.5-7.5s-3.357-7.5-7.5-7.5H143.813
	c-12.701,0-23.035-10.334-23.035-23.035v-7.852h270.445v7.852c0,12.701-10.333,23.035-23.035,23.035h-11.8
	c-4.143,0-7.5,3.357-7.5,7.5s3.357,7.5,7.5,7.5h11.8c20.973,0,38.035-17.063,38.035-38.035V272.886h2.094
	c8.706,0,15.789-6.732,15.789-15.007V130.508C424.105,122.232,417.022,115.5,408.316,115.5z M103.684,422.682
	c-0.409,0-0.669-0.135-0.789-0.226v-15.589c0.12-0.092,0.38-0.227,0.789-0.227h2.094v16.041L103.684,422.682L103.684,422.682z
	 M103.684,160.682c-0.409,0-0.669-0.135-0.789-0.226v-15.589c0.12-0.092,0.38-0.227,0.789-0.227h2.094v16.041h-2.094V160.682z
	 M120.777,91.101V69.323h207.3c4.143,0,7.5-3.357,7.5-7.5s-3.357-7.5-7.5-7.5h-207.3V38.036C120.777,25.334,131.11,15,143.813,15
	h224.375c12.702,0,23.035,10.334,23.035,23.036v16.287h-30.586c-4.143,0-7.5,3.357-7.5,7.5s3.357,7.5,7.5,7.5h30.586V91.1
	L120.777,91.101L120.777,91.101z M409.105,257.66c-0.121,0.091-0.38,0.226-0.789,0.226h-2.094V130.5h2.094
	c0.409,0,0.669,0.135,0.789,0.227V257.66z"/>
<path d="M269.159,28.005H244.19c-4.143,0-7.5,3.357-7.5,7.5s3.357,7.5,7.5,7.5h24.969c4.143,0,7.5-3.357,7.5-7.5
	S273.302,28.005,269.159,28.005z"/>
<path d="M216.86,28.005h-1.012c-4.143,0-7.5,3.357-7.5,7.5s3.357,7.5,7.5,7.5h1.012c4.143,0,7.5-3.357,7.5-7.5
	S221.003,28.005,216.86,28.005z"/>
<path d="M244.19,472.707c-4.143,0-7.5,3.357-7.5,7.5s3.357,7.5,7.5,7.5h24.969c4.143,0,7.5-3.357,7.5-7.5s-3.357-7.5-7.5-7.5H244.19
	z"/>
<path d="M161.354,213.588h22.569c4.143,0,7.5-3.357,7.5-7.5v-22.569c0-4.143-3.357-7.5-7.5-7.5h-22.569c-4.143,0-7.5,3.357-7.5,7.5
	v22.569C153.854,210.23,157.211,213.588,161.354,213.588z M168.854,191.019h7.569v7.569h-7.569V191.019z"/>
<path d="M211.651,226.316V163.29c0-4.143-3.357-7.5-7.5-7.5h-63.026c-4.143,0-7.5,3.357-7.5,7.5v63.026c0,4.143,3.357,7.5,7.5,7.5
	h63.026C208.294,233.816,211.651,230.459,211.651,226.316z M196.651,218.816h-48.026V170.79h48.026V218.816z"/>
<path d="M183.923,346.831h-22.569c-4.143,0-7.5,3.357-7.5,7.5V376.9c0,4.143,3.357,7.5,7.5,7.5h22.569c4.143,0,7.5-3.357,7.5-7.5
	v-22.569C191.423,350.188,188.065,346.831,183.923,346.831z M176.423,369.4h-7.569v-7.569h7.569V369.4z"/>
<path d="M133.625,397.129c0,4.143,3.357,7.5,7.5,7.5h63.026c4.143,0,7.5-3.357,7.5-7.5v-63.026c0-4.143-3.357-7.5-7.5-7.5h-63.026
	c-4.143,0-7.5,3.357-7.5,7.5V397.129z M148.625,341.603h48.026v48.026h-48.026V341.603z"/>
<path d="M328.077,213.588h22.569c4.143,0,7.5-3.357,7.5-7.5v-22.569c0-4.143-3.357-7.5-7.5-7.5h-22.569c-4.143,0-7.5,3.357-7.5,7.5
	v22.569C320.577,210.23,323.935,213.588,328.077,213.588z M335.577,191.019h7.569v7.569h-7.569V191.019z"/>
<path d="M378.375,163.29c0-4.143-3.357-7.5-7.5-7.5h-63.026c-4.143,0-7.5,3.357-7.5,7.5v63.026c0,4.143,3.357,7.5,7.5,7.5h63.026
	c4.143,0,7.5-3.357,7.5-7.5V163.29z M363.375,218.816h-48.026V170.79h48.026V218.816z"/>
<path d="M133.625,311.886c0,4.143,3.357,7.5,7.5,7.5s7.5-3.357,7.5-7.5v-3.979h3.158v3.979c0,4.143,3.357,7.5,7.5,7.5h40.905
	c4.143,0,7.5-3.357,7.5-7.5s-3.357-7.5-7.5-7.5h-33.405v-3.979c0-4.143-3.357-7.5-7.5-7.5h-10.658v-3.979c0-4.143-3.357-7.5-7.5-7.5
	s-7.5,3.357-7.5,7.5V311.886z"/>
<path d="M133.625,272.284c0,4.143,3.357,7.5,7.5,7.5s7.5-3.357,7.5-7.5v-28.532c0-4.143-3.357-7.5-7.5-7.5s-7.5,3.357-7.5,7.5
	V272.284z"/>
<path d="M200.188,299.58c4.143,0,7.5-3.357,7.5-7.5v-48.328c0-4.143-3.357-7.5-7.5-7.5h-40.371c-4.143,0-7.5,3.357-7.5,7.5
	s3.357,7.5,7.5,7.5h5.32v5.627h-5.854c-4.143,0-7.5,3.357-7.5,7.5s3.357,7.5,7.5,7.5h13.354c4.143,0,7.5-3.357,7.5-7.5v-13.127
	h12.551v40.828C192.688,296.223,196.046,299.58,200.188,299.58z"/>
<path d="M183.626,299.618c4.143,0,7.5-3.357,7.5-7.5v-10.7c0-4.143-3.357-7.5-7.5-7.5h-23.034c-4.143,0-7.5,3.357-7.5,7.5
	s3.357,7.5,7.5,7.5h15.534v3.2C176.126,296.261,179.483,299.618,183.626,299.618z"/>
<path d="M289.739,170.79c4.143,0,7.5-3.357,7.5-7.5s-3.357-7.5-7.5-7.5h-28.531c-4.143,0-7.5,3.357-7.5,7.5s3.357,7.5,7.5,7.5
	H289.739z"/>
<path d="M221.606,175.948c-4.143,0-7.5,3.357-7.5,7.5v60.06c0,4.143,3.357,7.5,7.5,7.5s7.5-3.357,7.5-7.5v-52.56h3.979
	c4.143,0,7.5-3.357,7.5-7.5V170.79h3.979c4.143,0,7.5-3.357,7.5-7.5s-3.357-7.5-7.5-7.5h-22.958c-4.143,0-7.5,3.357-7.5,7.5
	s3.357,7.5,7.5,7.5h3.979v5.158H221.606z"/>
<path d="M244.573,182.757v15.534h-3.199c-4.143,0-7.5,3.357-7.5,7.5s3.357,7.5,7.5,7.5h10.699c4.143,0,7.5-3.357,7.5-7.5v-23.034
	c0-4.143-3.357-7.5-7.5-7.5S244.573,178.614,244.573,182.757z"/>
<path d="M281.814,325.811h-20.606c-4.143,0-7.5,3.357-7.5,7.5s3.357,7.5,7.5,7.5h20.606c4.143,0,7.5-3.357,7.5-7.5
	S285.957,325.811,281.814,325.811z"/>
<path d="M221.606,345.724c-4.143,0-7.5,3.357-7.5,7.5V377c0,4.143,3.357,7.5,7.5,7.5s7.5-3.357,7.5-7.5v-16.276h3.979
	c4.143,0,7.5-3.357,7.5-7.5v-12.413h3.979c4.143,0,7.5-3.357,7.5-7.5s-3.357-7.5-7.5-7.5h-22.958c-4.143,0-7.5,3.357-7.5,7.5
	s3.357,7.5,7.5,7.5h3.979v4.913H221.606z"/>
<path d="M221.985,397.129c0,4.143,3.357,7.5,7.5,7.5h52.329c4.143,0,7.5-3.357,7.5-7.5v-43.37c0-4.143-3.357-7.5-7.5-7.5
	s-7.5,3.357-7.5,7.5v8.32h-0.871v-8.855c0-4.143-3.357-7.5-7.5-7.5s-7.5,3.357-7.5,7.5v16.355c0,4.143,3.357,7.5,7.5,7.5h8.371
	v12.55h-44.829C225.343,389.629,221.985,392.986,221.985,397.129z"/>
<path d="M248.903,386.066c4.143,0,7.5-3.357,7.5-7.5v-21.033c0-4.143-3.357-7.5-7.5-7.5s-7.5,3.357-7.5,7.5v13.533h-1.199
	c-4.143,0-7.5,3.357-7.5,7.5s3.357,7.5,7.5,7.5H248.903z"/>
<path d="M369.654,237.013h-28.532c-4.143,0-7.5,3.357-7.5,7.5s3.357,7.5,7.5,7.5h28.532c4.143,0,7.5-3.357,7.5-7.5
	S373.797,237.013,369.654,237.013z"/>
<path d="M369.654,319.971c4.143,0,7.5-3.357,7.5-7.5v-49.265c0-4.143-3.357-7.5-7.5-7.5s-7.5,3.357-7.5,7.5v5.319h-5.626v-5.854
	c0-4.143-3.357-7.5-7.5-7.5s-7.5,3.357-7.5,7.5v13.354c0,4.143,3.357,7.5,7.5,7.5h13.126v3.055h-11.508c-4.143,0-7.5,3.357-7.5,7.5
	s3.357,7.5,7.5,7.5h11.508v3.391h-44.828c-4.143,0-7.5,3.357-7.5,7.5s3.357,7.5,7.5,7.5L369.654,319.971L369.654,319.971z"/>
<path d="M331.988,300.062c4.143,0,7.5-3.357,7.5-7.5V263.98c0-4.143-3.357-7.5-7.5-7.5s-7.5,3.357-7.5,7.5v21.082h-3.199
	c-4.143,0-7.5,3.357-7.5,7.5s3.357,7.5,7.5,7.5H331.988z"/>
<path d="M352.638,386.153c4.143,0,7.5-3.357,7.5-7.5v-30.037c0-4.143-3.357-7.5-7.5-7.5h-34.1c-4.143,0-7.5,3.357-7.5,7.5
	s3.357,7.5,7.5,7.5h26.6v22.537C345.138,382.796,348.495,386.153,352.638,386.153z"/>
<path d="M319.553,357.726c-4.143,0-7.5,3.357-7.5,7.5v7.648c0,4.143,3.357,7.5,7.5,7.5h17.05c4.143,0,7.5-3.357,7.5-7.5
	s-3.357-7.5-7.5-7.5h-9.55v-0.148C327.053,361.083,323.695,357.726,319.553,357.726z"/>
<path d="M214.106,313.471c0,4.143,3.357,7.5,7.5,7.5h72.414v76.158c0,4.143,3.357,7.5,7.5,7.5h68.134c4.143,0,7.5-3.357,7.5-7.5
	v-65.912c0-4.143-3.357-7.5-7.5-7.5h-45.176c-4.143,0-7.5,3.357-7.5,7.5s3.357,7.5,7.5,7.5h37.676v50.912H309.02V271.171H313
	c4.143,0,7.5-3.357,7.5-7.5v-11.658h3.979c4.143,0,7.5-3.357,7.5-7.5s-3.357-7.5-7.5-7.5h-22.958c-4.143,0-7.5,3.357-7.5,7.5
	s3.357,7.5,7.5,7.5h3.979v4.158h-3.979c-4.143,0-7.5,3.357-7.5,7.5v42.3h-64.914v-34.092h19.043v15.539c0,4.143,3.357,7.5,7.5,7.5
	h27.706c4.143,0,7.5-3.357,7.5-7.5s-3.357-7.5-7.5-7.5H263.15v-8.039h8.361c4.143,0,7.5-3.357,7.5-7.5v-34.525h10.729
	c4.143,0,7.5-3.357,7.5-7.5v-40.37c0-4.143-3.357-7.5-7.5-7.5s-7.5,3.357-7.5,7.5v5.319h-5.626v-5.854c0-4.143-3.357-7.5-7.5-7.5
	s-7.5,3.357-7.5,7.5v13.354c0,4.143,3.357,7.5,7.5,7.5h13.126v12.551h-41.828c-4.143,0-7.5,3.357-7.5,7.5s3.357,7.5,7.5,7.5h23.6
	v27.025h-16.307v-5.871h3.945c4.143,0,7.5-3.357,7.5-7.5s-3.357-7.5-7.5-7.5h-11.445c-4.143,0-7.5,3.357-7.5,7.5v13.371h-11.098
	c-4.143,0-7.5,3.357-7.5,7.5L214.106,313.471L214.106,313.471z"/>
<g>
</g>
<g>
</g>
<g>
</g>
<g>
</g>
<g>
</g>
<g>
</g>
<g>
</g>
<g>
</g>
<g>
</g>
<g>
</g>
<g>
</g>
<g>
</g>
<g>
</g>
<g>
</g>
<g>
</g>
</svg>
