<?xml version="1.0" standalone="no"?>
<!DOCTYPE svg PUBLIC "-//W3C//DTD SVG 20010904//EN"
 "http://www.w3.org/TR/2001/REC-SVG-20010904/DTD/svg10.dtd">
<svg version="1.0" xmlns="http://www.w3.org/2000/svg"
 width="261.000000pt" height="289.000000pt" viewBox="0 0 261.000000 289.000000"
 preserveAspectRatio="xMidYMid meet">
<metadata>
Created by potrace 1.15, written by Peter Selinger 2001-2017
</metadata>
<g transform="translate(0.000000,289.000000) scale(0.100000,-0.100000)"
fill="#000000" stroke="none">
<path d="M1165 2815 c-38 -12 -198 -62 -355 -109 -388 -118 -410 -126 -410
-140 0 -7 74 -35 177 -67 l177 -56 -1 -39 c-1 -21 -11 -77 -23 -123 l-22 -83
37 -53 c59 -86 161 -157 290 -201 70 -24 99 -28 236 -32 135 -4 167 -1 240 17
155 39 289 123 357 226 l29 44 -22 83 c-12 46 -22 101 -21 122 l1 40 155 47
c85 26 163 48 173 48 15 1 17 -10 17 -86 -1 -60 -5 -94 -15 -107 -10 -14 -12
-24 -4 -38 7 -12 7 -24 1 -31 -5 -7 -12 -41 -15 -77 -3 -36 -8 -73 -12 -82 -6
-16 -1 -18 47 -18 l54 0 -4 68 c-2 37 -10 81 -17 98 -7 18 -9 37 -5 45 5 7 4
21 -1 30 -5 10 -9 65 -9 123 0 90 -3 107 -17 115 -10 5 -203 66 -429 135 -460
141 -477 144 -609 101z m-137 -455 c138 -41 252 -70 278 -70 27 0 137 28 274
70 126 39 236 70 245 70 9 0 15 -9 15 -23 0 -22 -15 -28 -247 -95 -137 -40
-266 -72 -288 -72 -22 0 -94 16 -160 35 -66 20 -176 52 -245 71 -69 20 -128
39 -132 43 -11 10 2 50 15 46 7 -2 117 -36 245 -75z"/>
<path d="M1263 1839 c-45 -13 -73 -53 -73 -105 0 -112 143 -155 201 -60 55 90
-26 194 -128 165z"/>
<path d="M735 1686 c-55 -17 -80 -31 -150 -84 -84 -63 -195 -114 -316 -147
-57 -15 -128 -34 -156 -41 -62 -17 -80 -41 -61 -81 40 -81 120 -89 254 -25 50
23 118 48 152 54 58 11 65 10 90 -9 58 -44 23 -160 -85 -284 -346 -396 -448
-528 -441 -568 2 -8 13 -17 25 -22 35 -13 126 54 290 214 150 147 241 227 256
227 13 0 -2 -58 -40 -150 -19 -47 -35 -90 -36 -95 -2 -6 -12 -26 -24 -45 -12
-19 -23 -42 -25 -50 -2 -8 -10 -22 -18 -32 -33 -37 -143 -273 -148 -315 -5
-51 14 -65 53 -39 26 17 110 117 126 151 5 11 28 47 50 80 68 103 78 120 78
129 -1 5 3 12 8 15 5 3 41 49 80 101 77 103 119 145 128 129 8 -12 -3 -131
-17 -184 -6 -22 -14 -58 -18 -80 -5 -22 -22 -103 -39 -180 -32 -141 -42 -268
-23 -287 18 -18 46 -3 69 37 12 22 52 130 89 240 71 215 147 389 167 382 27
-8 37 -70 30 -182 -12 -184 -10 -215 11 -230 48 -35 82 43 122 280 32 190 51
281 68 313 l13 26 13 -24 c17 -32 34 -109 69 -312 31 -181 50 -250 78 -280 20
-22 27 -22 48 -1 15 14 16 35 10 187 -7 173 0 232 28 224 23 -8 93 -167 156
-355 90 -269 126 -336 165 -304 26 22 19 125 -18 286 -45 191 -76 360 -76 407
l0 52 41 -39 c52 -51 106 -127 293 -416 69 -106 141 -181 170 -177 18 3 21 10
20 45 -1 44 -35 120 -143 318 -79 145 -153 319 -149 352 l3 26 50 -40 c28 -22
118 -105 200 -186 166 -161 183 -175 239 -205 29 -16 44 -19 58 -11 52 28 -10
120 -291 439 -201 228 -236 282 -236 370 0 50 2 56 29 68 39 19 130 1 217 -43
126 -64 195 -67 249 -13 36 35 39 72 8 92 -13 8 -85 31 -161 50 -158 40 -251
82 -357 159 -90 65 -136 86 -210 94 -79 8 -145 -9 -278 -72 l-115 -55 44 -37
c121 -103 144 -158 79 -193 -28 -15 -50 -3 -102 54 -25 28 -50 47 -54 43 -5
-4 -10 -38 -12 -75 -4 -67 -4 -68 72 -215 42 -83 76 -161 76 -177 0 -35 -23
-60 -56 -60 -32 0 -58 27 -77 81 -8 24 -25 72 -37 107 -13 34 -27 65 -32 68
-18 12 -39 -21 -64 -103 -34 -109 -60 -147 -101 -151 -24 -2 -35 2 -47 20 -22
33 -8 76 72 228 60 113 66 131 67 185 0 103 -6 106 -75 41 -63 -60 -88 -66
-117 -28 -28 35 -5 82 77 153 33 28 60 55 60 58 0 10 -222 109 -270 120 -59
14 -126 13 -175 -3z"/>
</g>
</svg>
