<?xml version="1.0" standalone="no"?>
<!DOCTYPE svg PUBLIC "-//W3C//DTD SVG 20010904//EN"
 "http://www.w3.org/TR/2001/REC-SVG-20010904/DTD/svg10.dtd">
<svg version="1.0" xmlns="http://www.w3.org/2000/svg"
 width="1024.000000pt" height="1024.000000pt" viewBox="0 0 1024.000000 1024.000000"
 preserveAspectRatio="xMidYMid meet">
<metadata>
Created by potrace 1.15, written by Peter Selinger 2001-2017
</metadata>
<g transform="translate(0.000000,1024.000000) scale(0.100000,-0.100000)"
fill="#000000" stroke="none">
<path d="M4945 10058 c-116 -8 -144 -15 -690 -168 -253 -71 -651 -181 -885
-245 -1120 -307 -1415 -390 -1620 -457 -155 -51 -180 -63 -180 -89 0 -41 197
-109 865 -299 215 -61 419 -120 455 -130 l65 -19 -6 -113 c-8 -133 -39 -283
-114 -543 -30 -105 -55 -197 -55 -205 0 -15 77 -118 187 -252 248 -299 716
-563 1238 -698 199 -51 484 -72 1025 -73 392 -1 447 3 695 59 562 126 1081
404 1346 720 88 106 179 231 179 246 0 7 -25 98 -55 202 -83 287 -107 409
-106 545 0 62 2 114 3 116 2 1 212 59 468 128 543 148 791 210 822 205 43 -6
50 -58 45 -313 -6 -250 -13 -297 -58 -366 -34 -54 -36 -85 -9 -139 24 -46 25
-68 6 -96 -24 -33 -44 -129 -66 -309 -11 -93 -28 -200 -37 -238 -9 -37 -13
-70 -9 -74 12 -12 134 -22 274 -22 l132 -1 0 38 c0 82 -21 312 -36 397 -9 50
-28 122 -42 160 -25 71 -29 112 -17 196 4 28 2 55 -4 67 -21 39 -32 169 -41
462 -4 164 -13 312 -20 333 -6 20 -21 44 -33 51 -33 22 -1147 338 -2217 630
-943 257 -1235 314 -1505 294z m-1359 -1579 c584 -162 1060 -283 1313 -335
145 -30 190 -35 256 -31 147 9 513 95 1160 272 469 129 808 215 844 215 35 0
61 -31 61 -72 0 -36 -44 -68 -135 -101 -244 -87 -1434 -391 -1813 -463 -143
-28 -144 -28 -250 -11 -150 22 -383 75 -692 157 -146 38 -413 109 -595 155
-357 93 -628 169 -687 192 -20 8 -38 22 -40 31 -10 43 28 132 56 132 8 0 243
-63 522 -141z"/>
<path d="M5006 6529 c-132 -20 -252 -106 -304 -217 -24 -51 -27 -69 -27 -167
0 -98 3 -116 27 -167 132 -283 565 -322 753 -67 110 150 108 325 -6 471 -86
109 -277 172 -443 147z"/>
<path d="M3025 6006 c-244 -40 -410 -112 -684 -295 -300 -201 -576 -334 -945
-455 -138 -45 -362 -104 -807 -210 -249 -60 -334 -92 -384 -145 -86 -92 16
-291 192 -378 72 -36 80 -37 198 -41 187 -6 298 20 635 153 323 127 545 189
725 202 95 7 145 -10 215 -73 60 -55 83 -109 82 -204 0 -126 -60 -277 -180
-456 -88 -131 -170 -223 -516 -584 -592 -617 -881 -927 -1118 -1201 -224 -259
-358 -458 -358 -531 0 -34 35 -73 85 -94 47 -19 79 -17 157 10 189 67 476 281
1061 790 614 535 913 772 948 750 28 -17 -29 -207 -128 -433 -31 -69 -88 -203
-128 -297 -42 -100 -96 -209 -129 -259 -32 -49 -77 -128 -102 -178 -24 -49
-67 -118 -94 -152 -120 -150 -370 -608 -511 -935 -52 -122 -54 -128 -54 -218
0 -91 1 -94 29 -119 25 -22 36 -24 74 -19 75 10 140 54 272 186 159 158 252
270 374 451 53 79 173 250 266 379 94 129 179 258 189 285 12 30 42 73 74 107
30 31 138 156 240 276 220 260 297 344 393 431 78 71 104 87 130 77 15 -6 16
-21 11 -159 -8 -193 -25 -302 -87 -552 -98 -396 -249 -1043 -274 -1170 -41
-218 -58 -382 -54 -534 3 -159 15 -188 81 -205 52 -13 135 29 189 98 68 84
168 318 398 927 264 696 475 1157 593 1294 32 36 37 39 63 30 38 -14 71 -74
91 -167 19 -92 20 -349 2 -573 -7 -88 -13 -261 -13 -385 -1 -206 1 -228 19
-265 52 -103 177 -115 247 -23 111 145 177 385 343 1238 99 515 158 734 228
858 l30 54 28 -49 c78 -132 127 -317 269 -1031 164 -826 214 -988 339 -1106
62 -57 97 -61 158 -16 71 52 78 78 77 290 -1 102 -6 327 -13 500 -16 430 -2
603 53 667 21 24 28 26 52 18 42 -15 111 -124 229 -360 125 -251 216 -463 360
-840 258 -676 357 -903 455 -1043 28 -40 66 -82 83 -92 64 -39 141 -18 173 47
24 49 31 253 14 392 -16 139 -72 409 -130 637 -179 701 -274 1176 -287 1434
l-6 134 104 -91 c227 -197 399 -408 906 -1108 341 -471 402 -553 486 -652 168
-201 351 -360 439 -384 47 -12 103 3 118 31 15 29 12 165 -6 234 -37 141 -165
388 -471 905 -423 713 -653 1196 -653 1369 0 34 4 63 8 66 4 2 64 -36 132 -86
192 -140 385 -301 895 -747 542 -474 657 -564 850 -661 140 -71 207 -84 269
-55 95 45 85 153 -30 325 -146 218 -407 511 -1055 1181 -520 538 -646 677
-781 857 -159 211 -202 330 -196 544 4 146 10 158 101 200 45 20 67 23 172 23
179 -1 354 -42 595 -141 309 -128 380 -154 475 -179 119 -31 257 -42 340 -26
93 17 200 75 270 145 72 72 95 117 95 181 0 66 -28 108 -93 139 -61 30 -345
108 -707 196 -513 124 -889 273 -1219 482 -222 141 -361 223 -446 263 -219
103 -425 143 -674 132 -282 -13 -464 -71 -1179 -377 -95 -41 -171 -77 -170
-81 2 -4 75 -62 163 -130 207 -160 380 -331 423 -418 61 -122 33 -190 -105
-260 -96 -48 -170 -15 -359 160 -141 131 -205 179 -240 179 -18 0 -24 -8 -33
-47 -33 -141 -40 -378 -15 -464 21 -70 91 -209 227 -449 215 -379 337 -636
337 -710 0 -143 -174 -239 -309 -171 -102 52 -150 132 -274 456 -88 231 -167
401 -194 423 -74 55 -160 -67 -273 -388 -99 -278 -191 -429 -294 -482 -25 -13
-67 -23 -106 -25 -80 -5 -122 14 -164 75 -25 35 -30 53 -31 100 0 31 9 84 19
117 28 86 150 322 311 600 229 398 245 441 245 683 0 311 -30 325 -275 125
-163 -133 -187 -150 -247 -178 -89 -42 -140 -31 -209 42 -48 50 -59 73 -59
125 0 100 111 237 344 424 136 110 236 200 236 214 0 16 -253 130 -525 237
-255 101 -464 172 -563 193 -125 27 -409 36 -527 16z"/>
</g>
</svg>
